# xmcd CD database file
#
# Track frame offsets:
#	150
#	28962
#	44255
#	59095
#	73874
#	95849
#	118517
#	134033
#	161852
#	184787
#	217173
#	242057
#	256732
#
# Disc length: 3663 seconds
#
# Revision: 2
# Processed by: cddbd v1.5.1PL0 Copyright (c) Steve Scherf et al.
# Submitted via: CDex 1.51
#
DISCID=d30e4d0d
DTITLE=Miriam Makeba - Reflections
DYEAR=2004
DGENRE=Jazz
TTITLE0=IYAGUDUZA
TTITLE1=Pata Pata
TTITLE2=Comme Une Symphonie D'Amour
TTITLE3=Mas Que Nada
TTITLE4=Click Song
TTITLE5=African Convention
TTITLE6=I'm In Love With Spring
TTITLE7=XICA DA SILVA
TTITLE8=Love Tastes Like Strawberries
TTITLE9=I Shall Sing
TTITLE10=Quit It
TTITLE11=Ring Bell
TTITLE12=Where Are You Going?
EXTD=YEAR: 2004
EXTT0=
EXTT1=
EXTT2=
EXTT3=
EXTT4=
EXTT5=
EXTT6=
EXTT7=
EXTT8=
EXTT9=
EXTT10=
EXTT11=
EXTT12=
PLAYORDER=
